<svg xmlns="http://www.w3.org/2000/svg" xmlns:xlink="http://www.w3.org/1999/xlink" width="2000" zoomAndPan="magnify" viewBox="0 0 1500 1499.999933" height="2000" preserveAspectRatio="xMidYMid meet" version="1.0"><defs><clipPath id="9380d0c1d6"><path d="M 750 0 C 335.785156 0 0 335.785156 0 750 C 0 1164.214844 335.785156 1500 750 1500 C 1164.214844 1500 1500 1164.214844 1500 750 C 1500 335.785156 1164.214844 0 750 0 Z M 750 0 " clip-rule="nonzero"/></clipPath><clipPath id="6f0446fa27"><path d="M 0 0 L 1500 0 L 1500 1500 L 0 1500 Z M 0 0 " clip-rule="nonzero"/></clipPath><clipPath id="c1a3e05862"><path d="M 750 0 C 335.785156 0 0 335.785156 0 750 C 0 1164.214844 335.785156 1500 750 1500 C 1164.214844 1500 1500 1164.214844 1500 750 C 1500 335.785156 1164.214844 0 750 0 Z M 750 0 " clip-rule="nonzero"/></clipPath><clipPath id="d96945ac71"><rect x="0" width="1500" y="0" height="1500"/></clipPath><clipPath id="b4dbe130eb"><path d="M 374.21875 443.269531 L 1125.71875 443.269531 L 1125.71875 1056.769531 L 374.21875 1056.769531 Z M 374.21875 443.269531 " clip-rule="nonzero"/></clipPath></defs><g clip-path="url(#9380d0c1d6)"><g transform="matrix(1, 0, 0, 1, 0, 0.000000000000112861)"><g clip-path="url(#d96945ac71)"><g clip-path="url(#6f0446fa27)"><g clip-path="url(#c1a3e05862)"><rect x="-330" width="2160" fill="#004aad" height="2159.999904" y="-329.999985" fill-opacity="1"/></g></g></g></g></g><g clip-path="url(#b4dbe130eb)"><path fill="#ffffff" d="M 1058.140625 515.65625 L 920.824219 515.65625 L 920.824219 504.6875 C 920.824219 471.15625 893.546875 443.875 860.015625 443.875 L 639.984375 443.875 C 606.457031 443.875 579.175781 471.15625 579.175781 504.6875 L 579.175781 515.65625 L 441.859375 515.65625 C 404.5625 515.65625 374.21875 546 374.21875 583.296875 L 374.21875 695.476562 C 374.21875 700.109375 377.21875 704.214844 381.636719 705.621094 L 403.824219 712.6875 L 403.824219 998.609375 C 403.824219 1030.402344 426.9375 1056.269531 455.355469 1056.269531 L 1044.644531 1056.269531 C 1073.058594 1056.269531 1096.175781 1030.402344 1096.175781 998.609375 L 1096.175781 713.160156 L 1118.554688 705.558594 C 1122.875 704.09375 1125.777344 700.039062 1125.777344 695.476562 L 1125.777344 583.296875 C 1125.777344 546 1095.4375 515.65625 1058.140625 515.65625 Z M 600.472656 504.6875 C 600.472656 482.902344 618.199219 465.175781 639.984375 465.175781 L 860.015625 465.175781 C 881.800781 465.175781 899.527344 482.902344 899.527344 504.6875 L 899.527344 515.65625 L 600.472656 515.65625 Z M 1074.875 998.609375 C 1074.875 1018.660156 1061.316406 1034.96875 1044.644531 1034.96875 L 455.355469 1034.96875 C 438.683594 1034.96875 425.121094 1018.660156 425.121094 998.609375 L 425.121094 719.476562 L 704.125 808.359375 L 704.125 841.628906 C 704.125 847.511719 708.890625 852.28125 714.773438 852.28125 L 805.707031 852.28125 C 811.589844 852.28125 816.359375 847.511719 816.359375 841.628906 L 816.359375 808.203125 L 1074.875 720.394531 Z M 725.425781 830.980469 L 725.425781 791.660156 L 795.058594 791.660156 L 795.058594 830.980469 Z M 1104.480469 687.84375 L 816.359375 785.710938 L 816.359375 781.007812 C 816.359375 775.128906 811.589844 770.359375 805.710938 770.359375 L 714.773438 770.359375 C 708.894531 770.359375 704.125 775.128906 704.125 781.007812 L 704.125 786.003906 L 395.519531 687.691406 L 395.519531 583.296875 C 395.519531 557.742188 416.308594 536.957031 441.859375 536.957031 L 1058.140625 536.957031 C 1083.691406 536.957031 1104.480469 557.746094 1104.480469 583.296875 Z M 1104.480469 687.84375 " fill-opacity="1" fill-rule="nonzero"/></g></svg>